<?xml version="1.0" standalone="no"?>
<!DOCTYPE svg PUBLIC "-//W3C//DTD SVG 20010904//EN"
 "http://www.w3.org/TR/2001/REC-SVG-20010904/DTD/svg10.dtd">
<svg version="1.0" xmlns="http://www.w3.org/2000/svg"
 width="626.000000pt" height="417.000000pt" viewBox="0 0 626.000000 417.000000"
 preserveAspectRatio="xMidYMid meet">
<metadata>
Created by potrace 1.16, written by Peter Selinger 2001-2019
</metadata>
<g transform="translate(0.000000,417.000000) scale(0.100000,-0.100000)"
fill="#000000" stroke="none">
<path d="M0 2085 l0 -2085 3130 0 3130 0 0 2085 0 2085 -3130 0 -3130 0 0
-2085z m1160 -320 c7 -9 31 -30 52 -47 40 -31 40 -31 75 -14 20 9 37 15 39 13
4 -4 -61 -35 -149 -72 -27 -11 -35 -12 -32 -3 2 7 -19 32 -46 55 l-49 42 37
20 c46 25 57 25 73 6z m-104 -156 c3 -5 19 -2 35 7 17 8 33 14 35 11 2 -2
-111 -56 -253 -120 -141 -65 -258 -115 -260 -113 -2 2 35 21 82 42 47 21 85
41 85 46 0 4 -20 24 -45 45 -25 20 -45 41 -45 45 0 8 65 38 82 38 5 0 31 -20
57 -45 l48 -45 49 20 48 21 -54 49 -55 48 45 20 45 19 47 -39 c27 -22 50 -44
54 -49z m663 -293 c-3 -3 -72 -24 -154 -46 -83 -23 -154 -46 -158 -50 -9 -8
38 -198 52 -212 3 -4 78 13 166 37 87 25 161 42 163 40 6 -6 5 -6 -176 -56
-125 -34 -152 -44 -148 -58 3 -9 8 -28 12 -43 3 -16 10 -28 15 -28 5 0 75 18
155 40 81 23 151 39 157 37 5 -1 -63 -23 -152 -47 -121 -33 -161 -47 -161 -59
0 -13 -2 -13 -9 -3 -8 13 -43 8 -109 -15 -11 -4 -14 -3 -7 4 6 6 32 16 58 23
l49 13 -7 36 c-4 20 -11 40 -15 45 -7 7 -275 -61 -474 -121 -12 -3 -16 -1 -12
6 4 5 22 13 42 17 30 5 34 9 28 28 -4 11 -18 59 -30 105 -13 46 -26 86 -29 89
-2 3 -78 -15 -167 -41 -149 -41 -182 -48 -165 -31 3 3 104 32 224 65 120 32
355 96 523 143 287 79 340 92 329 82z m-779 -332 c16 -41 15 -42 -52 -47 -10
-1 -18 -5 -18 -9 0 -19 -18 -6 -24 17 -7 28 -26 25 -26 -3 0 -15 2 -15 10 -2
8 12 10 11 10 -6 0 -17 -11 -23 -72 -37 -39 -10 -75 -14 -79 -10 -4 4 -10 20
-14 34 -6 24 -3 27 32 34 21 5 44 10 51 12 6 1 20 5 30 7 9 3 17 5 17 6 0 2
20 7 60 15 16 3 32 8 34 11 12 12 33 1 41 -22z"/>
<path d="M1187 1164 c-104 -29 -190 -54 -192 -56 -4 -4 51 -208 58 -214 2 -3
90 19 196 48 130 35 191 56 191 65 0 20 -51 197 -59 204 -3 3 -91 -18 -194
-47z"/>
</g>
</svg>
